<svg xmlns="http://www.w3.org/2000/svg" viewBox="0 0 510.0 288.09310892394865">
<style>
polygon { stroke: black; stroke-width: 2px; stroke-linejoin: round;}
.white {fill: #eee;}
.green {fill: #3d3;}
.red {fill: #d33;}
.blue {fill: #33d;}
.orange {fill: #e83;}
.yellow {fill: #dd3;}
</style>
<polygon class="green" points="192.49999999999997 98.74999999999999 317.49999999999994 98.74999999999999 317.5 36.25000000000001 192.49999999999997 36.25"/>
<polygon class="blue" points="192.49999999999997 98.74999999999999 254.99999999999994 206.54655446197432 192.49999999999997 251.84310892394862 129.99999999999997 144.04655446197432"/>
<polygon class="red" points="317.49999999999994 98.74999999999999 379.99999999999994 144.04655446197432 317.49999999999994 251.84310892394862 254.99999999999994 206.54655446197432"/>
<polygon class="orange" points="442.49999999999994 36.25000000000001 505.0 81.54655446197434 442.49999999999994 189.34310892394868 379.99999999999994 144.04655446197432"/>
<polygon class="yellow" points="67.49999999999999 36.25 129.99999999999997 144.04655446197432 67.49999999999999 189.34310892394862 5.0 81.54655446197431"/>
<polygon class="red" points="192.49999999999997 36.25 129.99999999999997 67.49999999999999 192.49999999999997 98.74999999999999"/>
<polygon class="green" points="192.49999999999997 98.74999999999999 254.99999999999994 129.99999999999997 317.49999999999994 98.74999999999999"/>
<polygon class="blue" points="317.49999999999994 98.74999999999999 379.99999999999994 67.5 317.5 36.25000000000001"/>
<polygon class="red" points="317.5 36.25000000000001 254.99999999999994 5.00000000000001 192.49999999999997 36.25"/>
<polygon class="yellow" points="129.99999999999997 67.49999999999999 192.49999999999997 98.74999999999999 129.99999999999997 144.04655446197432"/>
<polygon class="orange" points="192.49999999999997 98.74999999999999 254.99999999999994 129.99999999999997 254.99999999999994 206.54655446197432"/>
<polygon class="green" points="254.99999999999994 206.54655446197432 192.49999999999997 251.84310892394862 254.99999999999994 283.09310892394865"/>
<polygon class="green" points="129.99999999999997 144.04655446197432 129.99999999999997 220.5931089239486 192.49999999999997 251.84310892394862"/>
<polygon class="yellow" points="254.99999999999994 129.99999999999997 317.49999999999994 98.74999999999999 254.99999999999994 206.54655446197432"/>
<polygon class="yellow" points="317.49999999999994 98.74999999999999 379.99999999999994 67.5 379.99999999999994 144.04655446197432"/>
<polygon class="orange" points="379.99999999999994 144.04655446197432 317.49999999999994 251.84310892394862 379.99999999999994 220.5931089239486"/>
<polygon class="orange" points="254.99999999999994 206.54655446197432 254.99999999999994 283.09310892394865 317.49999999999994 251.84310892394862"/>
<polygon class="orange" points="379.99999999999994 67.5 442.49999999999994 36.25000000000001 379.99999999999994 144.04655446197432"/>
<polygon class="yellow" points="442.49999999999994 36.25000000000001 505.0 5.00000000000002 505.0 81.54655446197434"/>
<polygon class="blue" points="505.0 81.54655446197434 442.49999999999994 189.34310892394868 505.0 158.09310892394865"/>
<polygon class="blue" points="379.99999999999994 144.04655446197432 442.49999999999994 189.34310892394868 379.99999999999994 220.5931089239486"/>
<polygon class="blue" points="5.0 5.0 67.49999999999999 36.25 5.0 81.54655446197431"/>
<polygon class="green" points="67.49999999999999 36.25 129.99999999999997 67.49999999999999 129.99999999999997 144.04655446197432"/>
<polygon class="red" points="129.99999999999997 144.04655446197432 67.49999999999999 189.34310892394862 129.99999999999997 220.5931089239486"/>
<polygon class="red" points="5.0 81.54655446197431 5.0 158.09310892394862 67.49999999999999 189.34310892394862"/>
</svg>